<svg width="48" height="33" viewBox="0 0 48 33" fill="none" xmlns="http://www.w3.org/2000/svg">
<mask id="path-1-inside-1" fill="white">
<path fill-rule="evenodd" clip-rule="evenodd" d="M18.5825 0C17.8532 0 17.1816 0.397067 16.8301 1.03616L15.7898 2.92768C15.0868 4.20587 13.7437 5 12.2849 5H4C1.79086 5 0 6.79086 0 9V29C0 31.2091 1.79086 33 4 33H44C46.2091 33 48 31.2091 48 29V9C48 6.79086 46.2091 5 44 5H35.7151C34.2563 5 32.9132 4.20587 32.2102 2.92767L31.1699 1.03616C30.8184 0.397066 30.1468 0 29.4175 0H18.5825Z"/>
</mask>
<path d="M16.8301 1.03616L14.2015 -0.409593L14.2015 -0.409592L16.8301 1.03616ZM31.1699 1.03616L33.7985 -0.409593V-0.409595L31.1699 1.03616ZM32.2102 2.92767L34.8389 1.48192L32.2102 2.92767ZM15.7898 2.92768L13.1611 1.48192L15.7898 2.92768ZM19.4588 2.48192C19.283 2.80147 18.9472 3 18.5825 3V-3C16.7591 -3 15.0802 -2.00733 14.2015 -0.409593L19.4588 2.48192ZM18.4184 4.37343L19.4588 2.48192L14.2015 -0.409592L13.1611 1.48192L18.4184 4.37343ZM4 8H12.2849V2H4V8ZM3 9C3 8.44771 3.44772 8 4 8V2C0.134007 2 -3 5.13401 -3 9H3ZM3 29V9H-3V29H3ZM4 30C3.44772 30 3 29.5523 3 29H-3C-3 32.866 0.134005 36 4 36V30ZM44 30H4V36H44V30ZM45 29C45 29.5523 44.5523 30 44 30V36C47.866 36 51 32.866 51 29H45ZM45 9V29H51V9H45ZM44 8C44.5523 8 45 8.44771 45 9H51C51 5.13401 47.866 2 44 2V8ZM35.7151 8H44V2H35.7151V8ZM28.5412 2.48192L29.5816 4.37343L34.8389 1.48192L33.7985 -0.409593L28.5412 2.48192ZM29.4175 3C29.0528 3 28.717 2.80146 28.5412 2.48192L33.7985 -0.409595C32.9198 -2.00733 31.2409 -3 29.4175 -3V3ZM18.5825 3H29.4175V-3H18.5825V3ZM35.7151 2C35.3504 2 35.0146 1.80147 34.8389 1.48192L29.5816 4.37343C30.8118 6.61027 33.1622 8 35.7151 8V2ZM13.1611 1.48192C12.9854 1.80147 12.6496 2 12.2849 2V8C14.8378 8 17.1882 6.61027 18.4184 4.37343L13.1611 1.48192Z" fill="#00355B" mask="url(#path-1-inside-1)"/>
<circle cx="24" cy="18" r="8.5" stroke="#F0A25A" stroke-width="3"/>
</svg>
