<svg width="28" height="48" viewBox="0 0 28 48" fill="none" xmlns="http://www.w3.org/2000/svg">
<path d="M26.5 14.1176C26.5 15.4848 26.0856 17.5543 25.3233 20.1113C24.5715 22.633 23.5191 25.508 22.326 28.4359C19.9376 34.2972 17.0252 40.2747 14.9354 43.9128C14.6103 44.4788 14.2165 44.619 13.9642 44.6217C13.7149 44.6244 13.3262 44.4962 12.9974 43.9401C10.837 40.2857 7.94244 34.3244 5.58839 28.4692C4.41302 25.5457 3.3825 22.6736 2.64822 20.1495C1.90433 17.5924 1.5 15.5095 1.5 14.1176C1.5 7.13725 7.10825 1.5 14 1.5C20.8918 1.5 26.5 7.13725 26.5 14.1176Z" stroke="#00355B" stroke-width="3"/>
<circle cx="14" cy="13" r="4.5" stroke="#F0A25A" stroke-width="3"/>
</svg>
