<svg width="28" height="22" viewBox="0 0 28 22" fill="none" xmlns="http://www.w3.org/2000/svg">
<rect width="28" height="22" fill="white"/>
<rect x="3" y="3" width="22" height="18" rx="2" stroke="#F0A25A" stroke-width="2"/>
<path d="M6 12C6 11.4477 6.44772 11 7 11H11C11.5523 11 12 11.4477 12 12V16C12 16.5523 11.5523 17 11 17H7C6.44772 17 6 16.5523 6 16V12Z" stroke="#F0A25A" stroke-width="2"/>
<path d="M16 12C16 11.4477 16.4477 11 17 11H21C21.5523 11 22 11.4477 22 12V16C22 16.5523 21.5523 17 21 17H17C16.4477 17 16 16.5523 16 16V12Z" stroke="#F0A25A" stroke-width="2"/>
<line x1="2" y1="7" x2="25" y2="7" stroke="#F0A25A" stroke-width="2"/>
<line x1="21" y1="1" x2="21" y2="4" stroke="#F0A25A" stroke-width="2" stroke-linecap="round"/>
<line x1="8" y1="1" x2="8" y2="4" stroke="#F0A25A" stroke-width="2" stroke-linecap="round"/>
</svg>
